name rise34.3697peak60.0498fall86.3158.mot
datacolumns 19
datarows 36
range 21.90658700000000 21.96491300000000
endheader
time	ground_force1_vx	ground_force1_vy	ground_force1_vz	ground_force1_px	ground_force1_py	ground_force1_pz	ground_force2_vx	ground_force2_vy	ground_force2_vz	ground_force2_px	ground_force2_py	ground_force2_pz	ground_torque1_x	ground_torque1_y	ground_torque1_z	ground_torque2_x	ground_torque2_y	ground_torque2_z	
21.90658700000000	-1.36584700000000	696.57549100000006	39.85864800000000	0.26843600000000	0.00000000000000	0.09234400000000	0.00000000000000	0.00000000000000	0.00000000000000	0.00000000000000	0.00000000000000	0.00000000000000	0.00000000000000	20.56175900000000	0.00000000000000	0.00000000000000	0.00000000000000	0.00000000000000	
21.90825300000000	-1.78496300000000	697.53420900000003	39.94410500000000	0.26754600000000	0.00000000000000	0.09243400000000	0.00000000000000	0.00000000000000	0.00000000000000	0.00000000000000	0.00000000000000	0.00000000000000	0.00000000000000	20.64220300000000	0.00000000000000	0.00000000000000	0.00000000000000	0.00000000000000	
21.90991500000000	-2.20861200000000	698.52156400000001	40.02846300000000	0.26666400000000	0.00000000000000	0.09252300000000	0.00000000000000	0.00000000000000	0.00000000000000	0.00000000000000	0.00000000000000	0.00000000000000	0.00000000000000	20.72423000000000	0.00000000000000	0.00000000000000	0.00000000000000	0.00000000000000	
21.91157900000000	-2.63708400000000	699.53606400000001	40.11147200000000	0.26579100000000	0.00000000000000	0.09261000000000	0.00000000000000	0.00000000000000	0.00000000000000	0.00000000000000	0.00000000000000	0.00000000000000	0.00000000000000	20.80772500000000	0.00000000000000	0.00000000000000	0.00000000000000	0.00000000000000	
21.91324800000000	-3.07065000000000	700.57630500000005	40.19290400000000	0.26492500000000	0.00000000000000	0.09269500000000	0.00000000000000	0.00000000000000	0.00000000000000	0.00000000000000	0.00000000000000	0.00000000000000	0.00000000000000	20.89258400000000	0.00000000000000	0.00000000000000	0.00000000000000	0.00000000000000	
21.91491600000000	-3.50956800000000	701.64097900000002	40.27255700000000	0.26406800000000	0.00000000000000	0.09277900000000	0.00000000000000	0.00000000000000	0.00000000000000	0.00000000000000	0.00000000000000	0.00000000000000	0.00000000000000	20.97870800000000	0.00000000000000	0.00000000000000	0.00000000000000	0.00000000000000	
21.91658500000000	-3.95407700000000	702.72887400000002	40.35025300000000	0.26321700000000	0.00000000000000	0.09286100000000	0.00000000000000	0.00000000000000	0.00000000000000	0.00000000000000	0.00000000000000	0.00000000000000	0.00000000000000	21.06600800000000	0.00000000000000	0.00000000000000	0.00000000000000	0.00000000000000	
21.91825100000000	-4.40440100000000	703.83888100000001	40.42583500000000	0.26237400000000	0.00000000000000	0.09294100000000	0.00000000000000	0.00000000000000	0.00000000000000	0.00000000000000	0.00000000000000	0.00000000000000	0.00000000000000	21.15439900000000	0.00000000000000	0.00000000000000	0.00000000000000	0.00000000000000	
21.91992100000000	-4.86074400000000	704.96999000000005	40.49917200000000	0.26153800000000	0.00000000000000	0.09302000000000	0.00000000000000	0.00000000000000	0.00000000000000	0.00000000000000	0.00000000000000	0.00000000000000	0.00000000000000	21.24380600000000	0.00000000000000	0.00000000000000	0.00000000000000	0.00000000000000	
21.92158600000000	-5.32329100000000	706.12129600000003	40.57015600000000	0.26070700000000	0.00000000000000	0.09309700000000	0.00000000000000	0.00000000000000	0.00000000000000	0.00000000000000	0.00000000000000	0.00000000000000	0.00000000000000	21.33415900000000	0.00000000000000	0.00000000000000	0.00000000000000	0.00000000000000	
21.92325100000000	-5.79220900000000	707.29199500000004	40.63870200000000	0.25988300000000	0.00000000000000	0.09317300000000	0.00000000000000	0.00000000000000	0.00000000000000	0.00000000000000	0.00000000000000	0.00000000000000	0.00000000000000	21.42539200000000	0.00000000000000	0.00000000000000	0.00000000000000	0.00000000000000	
21.92491800000000	-6.26764400000000	708.48139000000003	40.70474800000000	0.25906400000000	0.00000000000000	0.09324600000000	0.00000000000000	0.00000000000000	0.00000000000000	0.00000000000000	0.00000000000000	0.00000000000000	0.00000000000000	21.51744900000000	0.00000000000000	0.00000000000000	0.00000000000000	0.00000000000000	
21.92658300000000	-6.74972100000000	709.68888300000003	40.76825600000000	0.25825000000000	0.00000000000000	0.09331900000000	0.00000000000000	0.00000000000000	0.00000000000000	0.00000000000000	0.00000000000000	0.00000000000000	0.00000000000000	21.61027400000000	0.00000000000000	0.00000000000000	0.00000000000000	0.00000000000000	
21.92824800000000	-7.23854400000000	710.91397900000004	40.82920900000000	0.25744100000000	0.00000000000000	0.09338900000000	0.00000000000000	0.00000000000000	0.00000000000000	0.00000000000000	0.00000000000000	0.00000000000000	0.00000000000000	21.70381900000000	0.00000000000000	0.00000000000000	0.00000000000000	0.00000000000000	
21.92991700000000	-7.73419500000000	712.15628100000004	40.88761500000000	0.25663600000000	0.00000000000000	0.09345800000000	0.00000000000000	0.00000000000000	0.00000000000000	0.00000000000000	0.00000000000000	0.00000000000000	0.00000000000000	21.79803700000000	0.00000000000000	0.00000000000000	0.00000000000000	0.00000000000000	
21.93158300000000	-8.23673500000000	713.41548899999998	40.94350300000000	0.25583400000000	0.00000000000000	0.09352500000000	0.00000000000000	0.00000000000000	0.00000000000000	0.00000000000000	0.00000000000000	0.00000000000000	0.00000000000000	21.89288900000000	0.00000000000000	0.00000000000000	0.00000000000000	0.00000000000000	
21.93325200000000	-8.74619900000000	714.69139500000006	40.99692400000000	0.25503500000000	0.00000000000000	0.09359100000000	0.00000000000000	0.00000000000000	0.00000000000000	0.00000000000000	0.00000000000000	0.00000000000000	0.00000000000000	21.98833500000000	0.00000000000000	0.00000000000000	0.00000000000000	0.00000000000000	
21.93492100000000	-9.26260300000000	715.98388100000000	41.04795000000000	0.25423800000000	0.00000000000000	0.09365500000000	0.00000000000000	0.00000000000000	0.00000000000000	0.00000000000000	0.00000000000000	0.00000000000000	0.00000000000000	22.08434100000000	0.00000000000000	0.00000000000000	0.00000000000000	0.00000000000000	
21.93657900000000	-9.78593600000000	717.29291300000000	41.09667700000000	0.25344400000000	0.00000000000000	0.09371700000000	0.00000000000000	0.00000000000000	0.00000000000000	0.00000000000000	0.00000000000000	0.00000000000000	0.00000000000000	22.18087200000000	0.00000000000000	0.00000000000000	0.00000000000000	0.00000000000000	
21.93825300000000	-10.31616400000000	718.61853599999995	41.14321900000000	0.25265100000000	0.00000000000000	0.09377800000000	0.00000000000000	0.00000000000000	0.00000000000000	0.00000000000000	0.00000000000000	0.00000000000000	0.00000000000000	22.27790000000000	0.00000000000000	0.00000000000000	0.00000000000000	0.00000000000000	
21.93991400000000	-10.85323100000000	719.96087000000000	41.18771200000000	0.25185800000000	0.00000000000000	0.09383700000000	0.00000000000000	0.00000000000000	0.00000000000000	0.00000000000000	0.00000000000000	0.00000000000000	0.00000000000000	22.37539600000000	0.00000000000000	0.00000000000000	0.00000000000000	0.00000000000000	
21.94158800000000	-11.39705300000000	721.32010200000002	41.23031300000000	0.25106600000000	0.00000000000000	0.09389500000000	0.00000000000000	0.00000000000000	0.00000000000000	0.00000000000000	0.00000000000000	0.00000000000000	0.00000000000000	22.47333200000000	0.00000000000000	0.00000000000000	0.00000000000000	0.00000000000000	
21.94325300000000	-11.94752500000000	722.69648199999995	41.27119700000000	0.25027300000000	0.00000000000000	0.09395200000000	0.00000000000000	0.00000000000000	0.00000000000000	0.00000000000000	0.00000000000000	0.00000000000000	0.00000000000000	22.57168300000000	0.00000000000000	0.00000000000000	0.00000000000000	0.00000000000000	
21.94491300000000	-12.50451400000000	724.09031400000003	41.31056100000000	0.24948000000000	0.00000000000000	0.09400700000000	0.00000000000000	0.00000000000000	0.00000000000000	0.00000000000000	0.00000000000000	0.00000000000000	0.00000000000000	22.67042600000000	0.00000000000000	0.00000000000000	0.00000000000000	0.00000000000000	
21.94658000000000	-13.06786500000000	725.50194799999997	41.34861700000000	0.24868500000000	0.00000000000000	0.09406000000000	0.00000000000000	0.00000000000000	0.00000000000000	0.00000000000000	0.00000000000000	0.00000000000000	0.00000000000000	22.76953700000000	0.00000000000000	0.00000000000000	0.00000000000000	0.00000000000000	
21.94825200000000	-13.63739800000000	726.93177600000001	41.38559900000000	0.24788900000000	0.00000000000000	0.09411200000000	0.00000000000000	0.00000000000000	0.00000000000000	0.00000000000000	0.00000000000000	0.00000000000000	0.00000000000000	22.86899500000000	0.00000000000000	0.00000000000000	0.00000000000000	0.00000000000000	
21.94991500000000	-14.21290600000000	728.38022200000000	41.42175600000000	0.24709000000000	0.00000000000000	0.09416300000000	0.00000000000000	0.00000000000000	0.00000000000000	0.00000000000000	0.00000000000000	0.00000000000000	0.00000000000000	22.96877700000000	0.00000000000000	0.00000000000000	0.00000000000000	0.00000000000000	
21.95157900000000	-14.79416100000000	729.84773399999995	41.45735600000000	0.24628800000000	0.00000000000000	0.09421300000000	0.00000000000000	0.00000000000000	0.00000000000000	0.00000000000000	0.00000000000000	0.00000000000000	0.00000000000000	23.06886400000000	0.00000000000000	0.00000000000000	0.00000000000000	0.00000000000000	
21.95325300000000	-15.38090700000000	731.33477300000004	41.49268100000000	0.24548300000000	0.00000000000000	0.09426100000000	0.00000000000000	0.00000000000000	0.00000000000000	0.00000000000000	0.00000000000000	0.00000000000000	0.00000000000000	23.16923400000000	0.00000000000000	0.00000000000000	0.00000000000000	0.00000000000000	
21.95491300000000	-15.97286800000000	732.84181200000000	41.52803100000000	0.24467500000000	0.00000000000000	0.09430900000000	0.00000000000000	0.00000000000000	0.00000000000000	0.00000000000000	0.00000000000000	0.00000000000000	0.00000000000000	23.26986800000000	0.00000000000000	0.00000000000000	0.00000000000000	0.00000000000000	
21.95658100000000	-16.56974100000000	734.36931800000002	41.56371800000000	0.24386200000000	0.00000000000000	0.09435500000000	0.00000000000000	0.00000000000000	0.00000000000000	0.00000000000000	0.00000000000000	0.00000000000000	0.00000000000000	23.37074600000000	0.00000000000000	0.00000000000000	0.00000000000000	0.00000000000000	
21.95825500000000	-17.17120100000000	735.91775099999995	41.60007000000000	0.24304600000000	0.00000000000000	0.09439900000000	0.00000000000000	0.00000000000000	0.00000000000000	0.00000000000000	0.00000000000000	0.00000000000000	0.00000000000000	23.47184800000000	0.00000000000000	0.00000000000000	0.00000000000000	0.00000000000000	
21.95991500000000	-17.77690100000000	737.48755300000005	41.63742600000000	0.24222400000000	0.00000000000000	0.09444300000000	0.00000000000000	0.00000000000000	0.00000000000000	0.00000000000000	0.00000000000000	0.00000000000000	0.00000000000000	23.57315500000000	0.00000000000000	0.00000000000000	0.00000000000000	0.00000000000000	
21.96158200000000	-18.38647100000000	739.07913499999995	41.67613800000000	0.24139800000000	0.00000000000000	0.09448600000000	0.00000000000000	0.00000000000000	0.00000000000000	0.00000000000000	0.00000000000000	0.00000000000000	0.00000000000000	23.67464700000000	0.00000000000000	0.00000000000000	0.00000000000000	0.00000000000000	
21.96325400000000	-18.99952000000000	740.69287499999996	41.71656700000000	0.24056700000000	0.00000000000000	0.09452800000000	0.00000000000000	0.00000000000000	0.00000000000000	0.00000000000000	0.00000000000000	0.00000000000000	0.00000000000000	23.77630400000000	0.00000000000000	0.00000000000000	0.00000000000000	0.00000000000000	
21.96491300000000	-19.61563600000000	742.32910800000002	41.75908500000000	0.23973000000000	0.00000000000000	0.09456800000000	0.00000000000000	0.00000000000000	0.00000000000000	0.00000000000000	0.00000000000000	0.00000000000000	0.00000000000000	23.87810500000000	0.00000000000000	0.00000000000000	0.00000000000000	0.00000000000000	
